<?xml version="1.0" standalone="no"?>
<!DOCTYPE svg PUBLIC "-//W3C//DTD SVG 20010904//EN"
 "http://www.w3.org/TR/2001/REC-SVG-20010904/DTD/svg10.dtd">
<svg version="1.0" xmlns="http://www.w3.org/2000/svg"
 width="199.000000pt" height="166.000000pt" viewBox="0 0 199.000000 166.000000"
 preserveAspectRatio="xMidYMid meet">
<metadata>
Created by potrace 1.16, written by Peter Selinger 2001-2019
</metadata>
<g transform="translate(0.000000,166.000000) scale(0.100000,-0.100000)"
fill="#000000" stroke="none">
<path d="M0 830 l0 -830 995 0 995 0 0 830 0 830 -995 0 -995 0 0 -830z m1060
709 c30 -6 97 -32 149 -57 77 -37 109 -60 181 -131 94 -93 142 -168 187 -292
24 -67 27 -88 27 -219 0 -137 -1 -150 -31 -230 -69 -190 -179 -321 -344 -409
-210 -112 -471 -114 -681 -4 -143 75 -252 188 -322 333 -34 69 -76 242 -76
310 0 127 81 346 167 450 103 125 270 226 419 255 87 16 232 14 324 -6z m810
-698 c0 -630 -2 -720 -15 -725 -13 -5 -15 79 -15 719 0 638 2 725 15 725 13 0
15 -87 15 -719z"/>
<path d="M596 1115 c-3 -9 -6 -62 -6 -118 0 -125 19 -175 74 -201 l36 -17 0
-143 c0 -107 3 -146 13 -155 29 -24 37 9 37 155 l0 142 38 19 c60 29 73 66 70
208 -3 108 -5 120 -22 123 -30 6 -36 -16 -36 -135 0 -100 -2 -115 -20 -133
-28 -28 -81 -26 -108 3 -19 20 -22 36 -24 142 -3 114 -4 120 -24 123 -13 2
-24 -4 -28 -13z"/>
<path d="M988 1114 c-41 -21 -59 -67 -66 -157 -6 -95 10 -136 64 -162 l34 -16
0 -143 c0 -115 3 -146 15 -156 12 -10 18 -10 30 0 12 10 15 41 15 155 l0 143
35 21 c52 30 68 75 59 164 -8 81 -22 116 -60 146 -31 25 -86 27 -126 5z m104
-61 c15 -13 18 -31 18 -103 0 -98 -7 -110 -62 -110 -56 0 -68 25 -61 123 4 47
12 84 20 93 19 19 62 18 85 -3z"/>
</g>
</svg>
